<?xml version="1.0" encoding="utf-8"?>
<!-- Generator: Adobe Illustrator 16.0.0, SVG Export Plug-In . SVG Version: 6.00 Build 0)  -->
<!DOCTYPE svg PUBLIC "-//W3C//DTD SVG 1.1//EN" "http://www.w3.org/Graphics/SVG/1.1/DTD/svg11.dtd">
 <svg version="1.1" xmlns="http://www.w3.org/2000/svg" xmlns:xlink="http://www.w3.org/1999/xlink" x="0px" y="0px"
       width="841.89px" height="595.28px" viewBox="0 0 841.89 595.28" enable-background="new 0 0 841.89 595.28" xml:space="preserve">
        <g id="Calque_1">
        </g>
        <g id="Calque_2">
          <g>
            <g id="background__svg">
              <g>
                <path fill="#EF6D95" d="M705.382,288.367c0,156.972-127.248,284.223-284.222,284.223
                  c-156.973,0-284.225-127.251-284.225-284.223c0-181.988,127.254-284.225,284.225-284.225
                  C578.134,4.142,705.382,131.395,705.382,288.367z"/>
              </g>
              <g>
                <path fill="#EF6D95" d="M695.542,304.037c0,156.972-127.248,284.222-284.222,284.222c-156.973,0-284.226-127.25-284.226-284.222
                  c0-156.974,127.253-284.227,284.226-284.227C568.294,19.81,695.542,147.063,695.542,304.037z"/>
              </g>
              <g>
                <path fill="#EF6D95" d="M730.876,308.757c0,156.972-127.244,284.223-284.222,284.223
                  c-156.972,0-284.224-127.251-284.224-284.223S289.683,24.532,446.654,24.532C603.632,24.532,730.876,151.785,730.876,308.757z"
                  />
              </g>
              <g>
                <circle fill="#EF6D95" cx="446.863" cy="282.807" r="284.224"/>
              </g>
            </g>
            <g>
              <path fill="none" class= "pathToStroke" stroke="#FFFFFF" d="M374.288,178.929c-3.725-2.117-7.438-0.533-7.438-0.533s-10.104,24.45-11.697,36.673
                c0.529-12.224,0-28.699-11.687-29.764c0,0-4.251-1.053-12.22,34.539c0,0-1.065-12.748-1.065-14.345
                c0-1.589-4.779-6.911-9.562-6.911c-1.598,0-2.127,1.601-2.127,7.442c0,5.845-1.596,58.459-4.781,66.953
                c-3.19,8.505-7.972,17.008-9.037,15.947c-1.061-1.067-5.31-11.16-4.778-14.881c2.119-4.25,18.064-39.322,13.815-63.762
                c-4.256-24.451-23.917,7.438-24.45,24.439c-0.527,17-1.586,28.696-0.527,35.072c-2.12,3.184-4.782,10.092-5.847,9.027
                c-1.065-3.185-19.662-45.164-22.313-51.54c-2.658-6.376-9.565-21.256-6.374-30.283c3.184-9.037,11.688-6.375,13.286-5.853
                c1.586,0.529,2.648,1.064,2.648,1.064s-0.533-3.185-1.597-3.716c-4.246-2.128-11.687-2.128-15.936,2.659
                c-4.255,4.78-9.565,13.283-3.19,28.686c6.375,15.415,26.033,65.89,27.096,68.02c0,0-31.345,42.516-34.004,43.578
                c-2.652,1.05,5.843,7.963,14.88-2.662c9.034-10.619,21.788-24.969,24.438-28.166c1.595,3.729,17.01,37.203,19.673,63.241
                c2.648,26.037,0.521,45.694-4.79,51.006c-5.317,5.312-13.288,7.438-18.063,3.726c-4.781-3.726-4.781-13.287-4.781-13.287
                s-4.261,7.969,0,13.287c4.245,5.312,12.217,13.281,24.97,4.25c12.753-9.037,17-28.7,15.946-44.101
                c-1.066-15.412-3.193-36.669-13.819-57.925c-10.631-21.263-12.225-29.755-12.225-29.755l3.723-4.787
                c1.063,2.662,6.908,11.695,14.347,13.279c7.057,1.521,5.984,0.158,5.854,0.011c0.224,0.156,3.751,2.654,5.303,2.654
                c1.594,0,6.908-9.569,7.968-10.103c1.069-0.531,3.183-40.905,5.317-48.879c2.128-7.973,10.632-49.956,11.685-49.42
                c1.062,0.531-1.063,79.704-1.584,83.96c0.521,2.12,4.781,6.908,9.025,4.247c4.256-2.657,4.256-36.136,5.31-43.042
                c1.065-6.907,5.853-36.661,12.762-48.347c0.525,2.117,0,70.138-3.19,87.667c0,0,0,2.656,2.659,3.722
                c2.651,1.066,3.186,0.535,5.847,0.535c2.651,0,4.775-1.064,4.775-1.064s5.312-37.191,5.847-54.733
                C384.912,209.223,386.509,186.371,374.288,178.929z M297.317,247.976c0,0-0.917-15.21-1.374-17.98
                c-0.471-2.762,1.374-11.982,2.301-14.744c0.917-2.771,4.607-8.302,5.99-9.221c1.386-0.927,3.23-1.846,4.147,0
                c0.928,1.844-0.917,15.669-1.844,20.278C305.62,230.92,298.244,245.661,297.317,247.976z"/>
              <path fill="none" class= "pathToStroke" stroke="#FFFFFF" d="M526.26,181.592c-2.135-11.156-8.503-13.817-10.094-13.817c-1.594,0,3.716,3.193,4.781,6.375
                c1.061,3.195,0.531,23.92-6.912,44.11c0,0-11.163-34.008-12.216-38.264c0.535-4.781-0.534-23.376-2.66-27.632
                c-2.131-4.249-10.628-6.908-12.222,1.595c-1.596,8.506,6.906,37.2,6.906,37.2s-19.124,73.332-22.85,76.512
                c-0.534,0.535-3.188-26.569-1.598-51.005c4.254-3.193,17.004-15.945,14.879-31.89c-2.118-15.936-4.778-22.844-12.219-26.035
                c-7.44-3.185-19.659,57.925-17.534,87.674c-2.657,4.258-6.903,12.221-6.903,12.221s2.652-40.909,3.712-48.346
                c1.066-7.442,2.663-61.641-1.597-79.183c-4.243-17.532-3.713-16.999-13.28-23.375c0,9.56,3.19,43.036,3.19,53.667
                c0,10.626-0.529,32.414-1.597,37.725c-1.066,5.312-2.651,49.952-2.651,49.952s-4.26,9.03-5.854,9.03
                c-1.587,0,1.594-10.626,1.594-13.819c0-3.184-1.062-26.036-1.062-29.216c0-3.194,0.534-36.141,0.534-37.736
                c0-1.586-6.379-7.961-10.09-7.961c-3.729,0-2.133,6.375-2.133,6.375c-2.661-2.128-7.974-5.312-11.684-5.843
                c-3.728-0.532-5.312-1.597-7.975,3.715c-2.662,5.31-11.152,37.733-11.684,62.171c-0.535,24.442,0,38.26,5.31,43.037
                c5.312,4.789,14.35,8.503,17.531,0c3.19-8.496,6.375-18.06,6.375-18.06l1.597,15.409c0,0,6.374,5.312,10.1,5.312
                c3.716,0,2.653-1.597,2.119-3.187c-0.532-1.595,3.196-12.226,5.321-15.943c0,0,1.058,14.349,2.122,15.413
                c1.063,1.055,6.906,6.908,11.694,5.312l-0.531-3.192c0,0,4.777-20.727,6.906-23.906c0,0,1.056,18.064,5.312,22.311
                c4.25,4.256,12.75,10.635,16.469,3.192c3.722-7.439,20.726-70.67,19.659-79.704c0,0,6.91,25.502,9.034,39.851
                c0,0-10.625,26.034-9.564,33.477c1.062,7.44,2.128,10.622,6.374,12.217c4.257,1.602,17.01,3.196,18.606-10.622
                c1.588-13.816-2.134-38.263-4.786-46.758C516.692,229.95,528.385,192.747,526.26,181.592z M475.229,165.473
                c0.465-2.771,2.764,6.906,3.233,8.751c0.455,1.846,0.455,15.668-0.47,18.898c-0.919,3.23-7.364,12.451-7.364,12.451
                C470.628,204.185,474.771,168.234,475.229,165.473z M416.232,241.059c0,2.771-14.283,30.88-14.283,30.88
                c-3.23-3.22,2.763-88.955,3.218-92.184c0.472-3.229,3.234-7.376,3.689-5.989c0.47,1.384,5.99,11.979,7.837,13.825
                C416.693,187.591,416.232,238.297,416.232,241.059z M497.358,166.848c-1.383-3.221-6.457-7.833-5.999-11.055
                c0.467-3.229,0.467-5.531,2.311-5.073c1.845,0.459,3.219,1.386,3.688,3.688C497.819,156.711,497.358,166.848,497.358,166.848z
                 M506.552,276.874c-1.368,1.98-2.439,4.266-3.045,4.119c-0.615-0.156-1.989-4.58-1.679-6.873
                c0.302-2.292,5.64-19.696,5.64-19.696C507.77,256.719,507.926,274.884,506.552,276.874z"/>
              <path fill="none" class= "pathToStroke" stroke="#FFFFFF" d="M452.312,288.303c-17.51-4.146-31.338,5.994-35.026,7.837c-4.146-3.688-8.301-3.232-9.22-2.77
                c-0.925,0.464,0.458,2.309,0.919,3.228c0.464,0.928-0.461,5.531,0,7.833c0,0-4.604,5.075-5.995,8.299
                c-1.374,3.228-0.455,6.916,0.467,4.155c0.924-2.772,4.609-5.535,4.609-5.535s-0.925,25.351-1.388,31.799
                c-0.457,6.461-6.906,80.201-6.906,80.201s-0.928,0.922-12.45,7.377c-11.521,6.448-18.899,1.387-20.745-9.221
                c-1.844-10.601,14.753-21.201,17.513-23.052c2.773-1.838,7.838-6.448,4.157-5.526c-3.685,0.929-31.806,15.211-25.816,34.104
                c5.992,18.905,34.566,7.841,36.413,6.454c0,1.387-2.76,47.386-2.76,47.386s0.913,1.38,5.062,2.767
                c4.149,1.38,7.377-5.074,8.302-6.454c0.919-1.38,3.218-46.922,3.682-52.448c24.428-10.149,45.629-49.328,52.086-70.987
                C471.669,332.097,469.825,292.452,452.312,288.303z M457.841,337.158c-8.292,38.25-35.026,66.376-38.712,69.136
                c-3.688,2.768-4.613,3.689-4.613,3.689c-0.461-3.219,4.143-30.422,4.143-34.111c0-3.688,2.314-31.802,2.314-34.567
                c0-2.767,2.757-23.968,2.299-27.65c-0.458-3.688-2.299-13.826-2.299-13.826s12.439-10.606,23.503-8.763
                C455.542,292.908,466.136,298.902,457.841,337.158z"/>
              <path fill="none" class= "pathToStroke" stroke="#FFFFFF" d="M614.547,324.945c1.386-3.688,19.357-52.548,17.055-66.375c-2.309-13.822-3.224-24.423-3.688-25.348
                c-0.458-0.919,0.464,28.578-2.76,38.716c-3.231,10.138-14.29,44.708-14.29,44.708s-11.99-32.259-12.448-35.03
                c-0.461-2.762-1.383-29.494-5.529-35.486c-4.146-5.989-5.531-10.146-10.14-9.677c-4.613,0.457-5.074,14.284-1.845,24.887
                c3.23,10.599,6.906,25.348,9.68,30.423c0,0-6.919,52.545-13.364,63.134c0,0-0.458-23.04,0.455-27.649
                c0.928-4.605,3.229-39.638,2.771-41.942c-0.467-2.302-5.531-7.836-11.521-6.451l-1.841,0.461c0,0,0.911,0.925,0.455,2.301
                c-0.455,1.387-4.605,61.765-5.53,63.145c-0.919,1.387-8.295,9.221-8.295,9.221s5.531-41.487,6.908-48.393
                c1.387-6.915,1.387-17.979,1.845-18.901c0.467-0.922,1.386-2.767,0.467-3.684c-0.925-0.926-4.613-7.838-10.146-8.296
                c-5.533-0.468-2.763,1.846-2.763,1.846s-17.98,17.044-19.815,17.971c0,0-1.844-3.229-3.685-3.688
                c-1.845-0.461-7.848,0-8.767,1.843c-0.925,1.845-4.144,9.22,0,12.91c4.149,3.688,8.767,3.218,12.909,0
                c0,0,1.377,13.824-2.302,22.123c-3.686,8.299-15.212,35.954-15.212,35.954s0.461-59.006,0.923-61.767
                c0.455-2.769-10.602-10.136-11.984-9.677c-1.387,0.457-0.929,2.302-0.929,3.69c0,1.374-0.458,8.518-0.458,8.518
                c-0.919-1.841-3.229-8.291-4.604-9.679c-1.386-1.381-2.302-0.456-4.146-2.3c-1.844-1.843-2.771-3.23-5.078-2.771
                c-2.302,0.465-17.051,15.678-17.051,50.25c0,34.562,1.383,39.167,4.607,41.927c3.227,2.777,10.142,5.538,11.519,5.08
                c1.362-0.452,11.594-22.654,11.981-23.479c-0.064,0.47-0.882,6.081,0.009,8.726c0.919,2.772,5.993,12.908,11.526,13.366
                c5.529,0.464,4.607-1.844,5.062-3.693c0.467-1.838,8.759-21.653,9.22-23.498c0.458-1.851,13.825-38.714,10.141-53.929
                c0,0,12.909-10.134,13.362-11.979c0,0-3.217,31.339-4.604,37.789c-1.386,6.46-4.146,39.179-2.303,48.857
                c1.842,2.308,9.216,8.756,11.979,8.298c2.775-0.458,8.295-33.183,10.14-34.11c-0.458,5.074,0.928,26.276,1.386,27.204
                c0.458,0.916,11.062,5.99,12.909,5.062c1.841-0.916-0.47-0.916,0.458-3.224c0.916-2.308,19.815-69.598,19.354-73.747
                c1.844,5.99,5.993,25.818,5.993,25.818s-6.451,17.738-6.909,32.028c-0.464,14.288,0,19.357,3.682,21.665
                c3.686,2.302,20.282,5.062,21.666-22.587C621.004,357.67,613.17,328.634,614.547,324.945z M497.941,353.06
                c-0.467,2.766-14.747,20.737-14.747,20.737c-4.149-37.799,7.371-74.666,8.29-74.2c0.925,0.459,1.386,2.303,3.688,5.063
                c2.302,2.772,3.229,2.302,4.612,2.772C499.785,307.433,498.402,350.293,497.941,353.06z M585.052,241.515
                c0,0,3.689,4.615,4.605,7.377c0.925,2.771,0.925,13.365,0.925,13.365C589.199,259.957,584.591,244.749,585.052,241.515z
                 M606.255,367.807c-0.916,4.146-4.605,15.669-5.537,14.294c-0.913-1.386-1.38-12.908-0.458-17.982
                c0.922-5.062,5.079-17.513,5.079-17.513C605.797,349.371,607.177,363.666,606.255,367.807z"/>
              <path fill="none" class= "pathToStroke" stroke="#FFFFFF" d="M519.021,295.447c1.038-0.783-1.847-3.688-5.996-3.227c-4.148,0.459-2.763,6.914-2.763,6.914
                S513.485,299.597,519.021,295.447z"/>
              <g>
                <path fill="none" class= "pathToStroke" stroke="#FFFFFF" d="M331.039,311.799c0.46-2.306,0.925-4.15,0.925-5.069c0-0.922,5.529-2.766,11.516,7.835
                  c-0.919,6.913-3.685,57.614-3.218,59c0.458,1.38,5.984-9.221,6.445-12.444c0.464-3.23,1.844-24.891,2.308-28.578
                  c0.461-3.688,2.768-30.88,1.38-32.266c-1.38-1.383,0.927-2.303,4.612-0.921c3.688,1.385,8.295,6.452,8.756,8.293
                  c2.305-4.606,6.451-14.287,14.75-16.129c8.295-1.845,14.29,6.913,14.29,14.746c0,7.838-1.845,71.439-5.072,81.582
                  c-0.461,0.922-10.6-1.381-13.363-5.99c-0.461-4.604,0.458-16.592,0.922-19.357c0.461-2.766,1.841-33.188,1.841-34.568
                  c0-1.381,1.383-23.504,0.925-25.812c-0.467-2.304,0.458-5.531-0.467-4.609c-0.919,0.922-7.833,3.688-12.903,23.509
                  c-0.922,20.279-2.769,65.905-8.295,71.902c-1.383,2.302-9.683,0.458-11.062-2.309c-1.383-2.766,0.919-16.127,0.919-16.127
                  s-4.146,11.98-3.685,13.825c0.464,1.845,0.919,8.757,0.919,8.757s-11.058,0.464-14.29-5.532
                  c-3.224-5.991-3.224-14.748-3.224-15.67s0-26.269,1.385-36.876C328.733,328.39,331.039,311.799,331.039,311.799z"/>
                <path fill="none" class= "pathToStroke" stroke="#FFFFFF" d="M338.415,288.062c0,1.384-1.383,3.228-1.844,5.07c-0.461,1.841-1.844,4.607,0.461,6.454
                  c2.305,1.843,2.305,5.531,4.149,4.146c1.844-1.381,3.688-4.609,4.146-6.91c0.461-2.305,1.38-3.227,0-5.071
                  C343.944,289.906,338.415,288.062,338.415,288.062z"/>
              </g>
              <path fill="none" class= "pathToStroke" stroke="#FFFFFF" d="M566.422,257.505c0,1.383-1.386,3.227-1.847,5.07c-0.458,1.844-1.844,4.607,0.461,6.452
                c2.305,1.844,2.305,5.53,4.148,4.149c1.842-1.383,3.688-4.61,4.146-6.911c0.461-2.306,1.38-3.228,0-5.072
                C571.951,259.348,566.422,257.505,566.422,257.505z"/>
            </g>
          </g>
        </g>
</svg>
